<svg width="512" height="512" viewBox="0 0 512 512" fill="none" xmlns="http://www.w3.org/2000/svg">
<path d="M348.65 101.784L339.309 82.4938L303.959 9.49818C302.009 5.48233 298.545 2.40413 294.328 0.938886C290.111 -0.526359 285.485 -0.258992 281.464 1.68233L267.982 8.21121C263.966 10.1614 260.888 13.625 259.422 17.8421C257.957 22.0592 258.224 26.6854 260.165 30.7058L262.454 35.433L222.021 77.4819L171.766 129.744C171.186 130.347 170.731 131.059 170.426 131.838C170.121 132.617 169.972 133.449 169.988 134.285C170.005 135.122 170.186 135.947 170.521 136.714C170.856 137.481 171.339 138.174 171.943 138.754C172.546 139.334 173.257 139.789 174.036 140.094C174.816 140.399 175.647 140.548 176.484 140.532C177.321 140.515 178.146 140.334 178.912 139.999C179.679 139.664 180.372 139.181 180.952 138.577L231.144 86.3797L268.376 47.661L351.067 218.419L378.799 275.686L189.234 294.124L136.364 184.946L160.293 160.062C161.462 158.844 162.099 157.211 162.065 155.523C162.03 153.835 161.328 152.23 160.111 151.06C158.894 149.889 157.262 149.25 155.574 149.282C153.886 149.313 152.28 150.014 151.108 151.229L124.892 178.493L41.3447 218.951C37.8096 220.668 35.0917 223.707 33.7777 227.411C32.4637 231.115 32.659 235.188 34.3214 238.749L9.38684 250.824C5.41819 252.751 2.3761 256.174 0.927998 260.341C-0.520105 264.509 -0.255965 269.081 1.66247 273.054L36.5842 345.168C38.5115 349.137 41.9344 352.179 46.1019 353.627C50.2695 355.076 54.8413 354.812 58.8144 352.893L83.749 340.818C85.5123 344.331 88.5861 347.009 92.3069 348.275C96.0276 349.541 100.097 349.293 103.637 347.585L108.38 345.288L156.728 445.127C158.899 449.614 161.932 453.63 165.655 456.944C169.378 460.259 173.717 462.807 178.426 464.444C183.134 466.081 188.118 466.775 193.094 466.485C198.071 466.195 202.941 464.928 207.427 462.755C211.914 460.583 215.928 457.548 219.241 453.823C222.554 450.099 225.101 445.759 226.736 441.05C228.371 436.341 229.062 431.356 228.771 426.38C228.479 421.404 227.21 416.534 225.035 412.049L176.688 312.21L187.184 307.127L384.719 287.914L386.648 291.897C388.599 295.913 392.063 298.992 396.28 300.457C400.497 301.922 405.123 301.655 409.143 299.713L422.626 293.184C426.642 291.234 429.72 287.77 431.186 283.553C432.651 279.336 432.384 274.71 430.443 270.69L420.784 250.744C420.045 249.227 418.735 248.065 417.14 247.513C415.546 246.961 413.798 247.065 412.279 247.8C410.76 248.535 409.595 249.843 409.04 251.436C408.484 253.029 408.583 254.778 409.315 256.298L418.974 276.244C419.446 277.222 419.511 278.347 419.154 279.373C418.798 280.398 418.049 281.241 417.072 281.715L403.59 288.244C402.612 288.716 401.486 288.782 400.461 288.425C399.435 288.069 398.592 287.32 398.118 286.343L308.419 101.113L271.634 25.1519C271.162 24.1739 271.097 23.0486 271.454 22.0228C271.81 20.9971 272.559 20.1546 273.536 19.6803L287.018 13.1514C287.996 12.6791 289.122 12.614 290.147 12.9703C291.173 13.3267 292.016 14.0754 292.49 15.0522L329.17 90.797L330.32 93.1721L396.356 229.538C397.093 231.059 398.403 232.225 399.999 232.779C401.596 233.334 403.347 233.232 404.868 232.495C406.389 231.759 407.555 230.448 408.109 228.852C408.664 227.256 408.562 225.505 407.825 223.984L386.113 179.147C394.66 173.297 400.828 164.576 403.496 154.567C406.163 144.559 405.154 133.926 400.652 124.597L400.461 124.203C395.934 114.886 388.218 107.501 378.712 103.388C369.206 99.2747 358.54 98.7058 348.65 101.784ZM78.1858 329.354L53.2604 341.424C52.3297 341.873 51.2588 341.935 50.2826 341.596C49.3064 341.256 48.5047 340.544 48.0533 339.614L13.1315 267.5C12.6824 266.569 12.6207 265.498 12.9598 264.522C13.299 263.546 14.0114 262.744 14.9407 262.293L39.8661 250.223L78.1858 329.354ZM213.567 417.603C215.011 420.582 215.854 423.817 216.048 427.122C216.241 430.427 215.782 433.737 214.696 436.865C213.609 439.992 211.918 442.875 209.717 445.348C207.517 447.822 204.851 449.837 201.871 451.28C198.892 452.723 195.657 453.565 192.352 453.757C189.047 453.95 185.737 453.489 182.61 452.402C179.483 451.315 176.6 449.623 174.128 447.422C171.655 445.22 169.64 442.554 168.198 439.574L119.96 339.962L165.33 317.991L213.567 417.603ZM176.923 297.938L98.0827 336.116C97.5533 336.372 96.9442 336.407 96.3889 336.214C95.8336 336.021 95.3776 335.616 95.1207 335.087L45.8693 233.382C45.614 232.852 45.579 232.243 45.772 231.688C45.965 231.133 46.3703 230.677 46.899 230.42L125.739 192.242L176.923 297.938ZM380.473 167.501L354.289 113.43C361.068 111.779 368.209 112.498 374.522 115.468C380.836 118.439 385.942 123.482 388.991 129.758L389.182 130.152C392.215 136.436 393.006 143.568 391.421 150.364C389.836 157.159 385.973 163.207 380.473 167.501Z" fill="white"/>
</svg>
